<svg width="114" height="34" viewBox="0 0 114 34" fill="none" xmlns="http://www.w3.org/2000/svg">
<path fill-rule="evenodd" clip-rule="evenodd" d="M83.8229 16.4769C83.8229 16.9744 83.7948 17.4783 83.8604 17.9715C84.1939 18.0826 89.3681 18.0132 90.0361 18.011C90.084 17.6769 90.0569 17.19 90.0559 16.8484V15.9943C90.0371 15.5021 89.8308 15.6804 88.8064 15.6729L84.8119 15.674C83.7479 15.6793 83.8208 15.4199 83.8229 16.4769Z" fill="white"/>
<path fill-rule="evenodd" clip-rule="evenodd" d="M52.2672 15.3165C52.8008 15.3474 53.4156 15.3293 53.9471 15.3239C54.4599 15.3186 54.8725 15.2225 55.0872 14.773C55.4092 14.1015 55.2946 12.3741 55.2925 11.5349C55.2831 7.70217 55.7031 7.55804 52.2651 7.68722L52.2672 15.3165ZM40.3567 8.18794L40.3671 15.8876C40.4359 16.2688 41.4499 16.1086 42.171 16.0958C42.6692 16.0862 43.0683 15.7755 43.1715 15.2898C43.2872 14.7485 43.2517 10.0168 43.2246 8.71534C43.2028 7.69042 42.1648 7.60395 41.3394 7.61355C41.1477 7.61569 40.7246 7.59114 40.5641 7.61676C40.2806 7.6616 40.3577 7.86765 40.3567 8.18794ZM64.2986 9.19791L64.2965 22.2155C64.2965 24.0219 65.1042 23.8201 66.5517 23.8201C68.266 23.819 68.018 23.1827 68.0201 21.6304L68.0222 10.3136C68.0242 9.61108 68.1545 8.59043 67.8481 8.08545C67.5042 7.51854 66.7914 7.5858 65.9806 7.58259C64.8228 7.58153 64.2976 7.78758 64.2986 9.19791ZM80.7132 16.7599C80.8122 16.7695 80.9988 16.8218 80.9842 16.7044L80.9863 14.173C80.6424 13.9414 78.135 14.0951 77.4618 14.0641L77.4587 7.67014L81.2343 7.66907L81.2489 7.72245L81.4271 7.53989C81.5115 7.40003 81.499 5.20286 81.424 5.12279C81.2551 4.94129 77.0918 5.0203 76.304 5.0235C74.3291 5.03097 74.6199 4.5388 74.6199 7.70964L74.6115 15.7328C74.6157 16.967 74.5136 25.9692 74.6439 26.3386C74.8888 26.4561 77.0887 26.4603 77.3419 26.345C77.5035 26.2041 77.4305 22.1343 77.4305 21.6304C77.4316 20.014 77.4253 18.3955 77.4347 16.7791L80.7132 16.7599ZM37.6815 7.01889L37.6836 25.8283C37.6826 26.5415 37.6159 26.3333 39.6793 26.3333C40.463 26.3333 40.3171 26.6205 40.3192 24.8717L40.3306 18.7862C40.6026 18.5428 40.9184 18.6314 41.3905 18.6304C42.318 18.6272 43.3372 18.7008 44.1303 18.388C44.6065 18.2001 44.8691 18.0197 45.1797 17.6482C45.7633 16.9457 45.9456 15.7627 45.9446 14.883C45.9446 14.7933 45.9863 8.17192 45.8977 7.74914C45.8487 7.51854 45.83 7.59861 45.7768 7.41818C45.6664 7.04558 45.6122 6.56622 45.1818 6.11141C44.2887 5.16869 43.6196 5.08542 42.2732 5.08756L38.1734 5.09076C37.5263 5.08222 37.6888 4.86656 37.6815 7.01889ZM49.4545 9.25022L49.4576 25.9383C49.4555 26.5959 49.7255 26.4486 51.0917 26.4443L52.1057 26.439C52.3506 26.1283 52.263 25.823 52.2641 25.2977L52.2755 17.8563L53.9002 17.8489L54.364 20.3076C54.3681 20.3194 54.3744 20.3322 54.3786 20.345C54.6745 21.1948 54.9465 22.6564 55.0674 23.5842L55.5426 25.8721C55.6187 26.5297 55.8146 26.4432 56.6431 26.4443C57.1882 26.4443 57.7884 26.4657 58.2699 26.3792C58.2793 26.1507 58.05 25.2593 57.9771 24.7564C57.9249 24.4073 57.8895 24.4767 57.8301 24.2279C57.7697 23.9685 57.7051 23.2446 57.6415 23.0941C57.4779 22.7066 57.1142 20.5115 57.0339 20.3194C56.9735 20.1742 57.011 20.3503 56.9443 20.0984C56.9172 19.9959 56.9099 19.9169 56.8776 19.7952L56.4347 17.5361C57.0704 17.1474 56.6254 17.6012 57.234 16.8677C57.3684 16.7044 57.4487 16.6382 57.5352 16.4449C57.6321 16.2293 57.6707 16.1727 57.7624 15.9314C58.2209 14.7261 58.0667 13.6894 58.0667 12.2791C58.0667 11.1186 58.1261 8.56267 57.9635 7.66907C57.7457 6.47547 57.3664 5.97795 56.4618 5.39823C56.2961 5.29254 56.021 5.16549 55.8084 5.1324C54.5151 4.92634 53.0123 5.02777 51.6628 5.02884H50.3132C49.8453 5.02884 49.5066 4.91887 49.468 5.38008L49.4545 9.25022ZM61.612 8.93207C61.611 11.015 61.5578 22.6372 61.6558 23.5543C61.7464 24.3945 62.0935 25.4258 62.8167 25.8721L63.4149 26.2169L64.4205 26.44C65.3324 26.4689 67.6501 26.4625 68.4265 26.3472C68.8611 26.2831 69.5009 25.9575 69.8084 25.6585C70.2836 25.1952 70.3315 25.0628 70.6035 24.4116C70.9214 23.6482 70.8046 20.4827 70.8046 19.3457L70.8005 8.55947C70.7932 7.21853 70.4159 5.96514 69.2071 5.41105C68.1535 4.92848 66.138 5.09503 64.8905 5.0961C63.6139 5.09823 63.1887 5.23809 62.3592 6.07404C62.1112 6.32386 62.0924 6.54059 61.9392 6.87369C61.7214 7.34772 61.613 8.28296 61.612 8.93207Z" fill="white"/>
<path fill-rule="evenodd" clip-rule="evenodd" d="M111.214 5.90286L111.193 14.036L111.19 14.9798C111.109 14.8848 108.446 6.01389 108.213 5.26122L105.588 5.17901L105.608 26.35L108.24 26.3447L108.252 12.6929C108.445 12.6801 108.42 12.7111 108.472 12.8413L110.573 19.9389L111.228 22.182L111.253 26.3714L113.714 26.3906C114.101 26.3564 113.983 25.9923 113.983 25.1372L113.98 5.53133C113.98 5.0146 114.097 5.09253 112.825 5.08719C112.426 5.08826 112.028 5.08933 111.629 5.08186C111.26 5.07438 111.204 5.07759 111.204 5.34663C111.204 5.4694 111.215 5.64663 111.214 5.90286ZM93.1197 6.1687C93.1197 8.64238 93.0197 25.9582 93.1603 26.3639C93.3521 26.4397 95.748 26.4728 95.8615 26.3489C95.9658 26.2347 95.9293 16.0357 95.9095 13.3922C95.9095 13.3421 95.9084 13.2257 95.9136 13.1798L95.9658 12.9716C96.0345 13.0335 96.2742 13.973 96.467 14.5869L98.6878 21.6332C98.9879 22.5834 98.8337 22.8663 98.841 25.1372L98.8441 26.2795L101.488 26.334L101.492 5.08933C101.039 5.08506 99.1672 5.01673 98.9223 5.13417C98.866 5.21211 98.891 5.14485 98.8608 5.26976L98.842 14.7407C98.841 14.92 98.7024 14.8389 98.5607 14.3574L96.1148 5.79503C95.8105 4.98043 96.2638 5.01673 94.6683 5.0146C92.8414 5.01246 93.1197 4.80748 93.1197 6.1687Z" fill="#4B8AB2"/>
<path fill-rule="evenodd" clip-rule="evenodd" d="M13.0141 17.252L26.0283 8.99815L13.0141 1.0625L0 8.89246L13.0141 17.252ZM13.0141 17.252L23.8054 10.4085L13.0141 3.82765L2.22287 10.3199L13.0141 17.252Z" fill="#4B8AB2"/>
<path fill-rule="evenodd" clip-rule="evenodd" d="M13.0141 12.9677L16.9168 10.4919L13.0141 8.11219L9.11128 10.4599L13.0141 12.9677ZM13.0141 15.4041L20.8353 10.4439L13.0141 5.6748L5.19287 10.3809L13.0141 15.4041Z" fill="#4B8AB2"/>
<path fill-rule="evenodd" clip-rule="evenodd" d="M13.0141 17.2521L0 8.89258V11.52L13.0141 19.8784L26.0283 11.6257V8.99827L13.0141 17.2521Z" fill="white"/>
<path fill-rule="evenodd" clip-rule="evenodd" d="M21.6691 18.6293L21.6566 16.146L13.0444 21.3186L4.34367 16.2474L4.30615 18.6677L13.0069 23.9311L21.6691 18.6293Z" fill="white"/>
<path fill-rule="evenodd" clip-rule="evenodd" d="M21.6691 23.0557L21.6566 20.5713L13.0444 25.745L4.34367 20.6738L4.30615 23.0941L13.0069 28.3575L21.6691 23.0557Z" fill="white"/>
<path fill-rule="evenodd" clip-rule="evenodd" d="M13.0141 30.4713L0 22.1118V24.7392L13.0141 33.0987L26.0283 24.8449V22.2175L13.0141 30.4713Z" fill="white"/>
<path fill-rule="evenodd" clip-rule="evenodd" d="M24.1763 23.3931L26.0281 22.2176L23.1842 20.4678L23.1675 22.8005L24.1763 23.3931Z" fill="#4B8AB2"/>
<path fill-rule="evenodd" clip-rule="evenodd" d="M1.85187 23.286L0 22.1117L2.84398 20.3618L2.86065 22.6946L1.85187 23.286Z" fill="#4B8AB2"/>
</svg>
