<svg width="114" height="33" viewBox="0 0 114 33" fill="none" xmlns="http://www.w3.org/2000/svg">
<path fill-rule="evenodd" clip-rule="evenodd" d="M83.8229 15.4769C83.8229 15.9744 83.7948 16.4783 83.8604 16.9715C84.1939 17.0826 89.3681 17.0132 90.0361 17.011C90.084 16.6769 90.0569 16.19 90.0559 15.8484V14.9943C90.0371 14.5021 89.8308 14.6804 88.8064 14.6729L84.8119 14.674C83.7479 14.6793 83.8208 14.4199 83.8229 15.4769Z" fill="#0F1330"/>
<path fill-rule="evenodd" clip-rule="evenodd" d="M52.2672 14.3165C52.8008 14.3474 53.4156 14.3293 53.9471 14.3239C54.4599 14.3186 54.8725 14.2225 55.0872 13.773C55.4092 13.1015 55.2946 11.3741 55.2925 10.5349C55.2831 6.70217 55.7031 6.55804 52.2651 6.68722L52.2672 14.3165ZM40.3567 7.18794L40.3671 14.8876C40.4359 15.2688 41.4499 15.1086 42.171 15.0958C42.6692 15.0862 43.0683 14.7755 43.1715 14.2898C43.2872 13.7485 43.2517 9.01678 43.2246 7.71534C43.2028 6.69042 42.1648 6.60395 41.3394 6.61355C41.1477 6.61569 40.7246 6.59114 40.5641 6.61676C40.2806 6.6616 40.3577 6.86765 40.3567 7.18794ZM64.2986 8.19791L64.2965 21.2155C64.2965 23.0219 65.1042 22.8201 66.5517 22.8201C68.266 22.819 68.018 22.1827 68.0201 20.6304L68.0222 9.31358C68.0242 8.61108 68.1545 7.59043 67.8481 7.08545C67.5042 6.51854 66.7914 6.5858 65.9806 6.58259C64.8228 6.58153 64.2976 6.78758 64.2986 8.19791ZM80.7132 15.7599C80.8122 15.7695 80.9988 15.8218 80.9842 15.7044L80.9863 13.173C80.6424 12.9414 78.135 13.0951 77.4618 13.0641L77.4587 6.67014L81.2343 6.66907L81.2489 6.72245L81.4271 6.53989C81.5115 6.40003 81.499 4.20286 81.424 4.12279C81.2551 3.94129 77.0918 4.0203 76.304 4.0235C74.3291 4.03097 74.6199 3.5388 74.6199 6.70964L74.6115 14.7328C74.6157 15.967 74.5136 24.9692 74.6439 25.3386C74.8888 25.4561 77.0887 25.4603 77.3419 25.345C77.5035 25.2041 77.4305 21.1343 77.4305 20.6304C77.4316 19.014 77.4253 17.3955 77.4347 15.7791L80.7132 15.7599ZM37.6815 6.01889L37.6836 24.8283C37.6826 25.5415 37.6159 25.3333 39.6793 25.3333C40.463 25.3333 40.3171 25.6205 40.3192 23.8717L40.3306 17.7862C40.6026 17.5428 40.9184 17.6314 41.3905 17.6304C42.318 17.6272 43.3372 17.7008 44.1303 17.388C44.6065 17.2001 44.8691 17.0197 45.1797 16.6482C45.7633 15.9457 45.9456 14.7627 45.9446 13.883C45.9446 13.7933 45.9863 7.17192 45.8977 6.74914C45.8487 6.51854 45.83 6.59861 45.7768 6.41818C45.6664 6.04558 45.6122 5.56622 45.1818 5.11141C44.2887 4.16869 43.6196 4.08542 42.2732 4.08756L38.1734 4.09076C37.5263 4.08222 37.6888 3.86656 37.6815 6.01889ZM49.4545 8.25022L49.4576 24.9383C49.4555 25.5959 49.7255 25.4486 51.0917 25.4443L52.1057 25.439C52.3506 25.1283 52.263 24.823 52.2641 24.2977L52.2755 16.8563L53.9002 16.8489L54.364 19.3076C54.3681 19.3194 54.3744 19.3322 54.3786 19.345C54.6745 20.1948 54.9465 21.6564 55.0674 22.5842L55.5426 24.8721C55.6187 25.5297 55.8146 25.4432 56.6431 25.4443C57.1882 25.4443 57.7884 25.4657 58.2699 25.3792C58.2793 25.1507 58.05 24.2593 57.9771 23.7564C57.9249 23.4073 57.8895 23.4767 57.8301 23.2279C57.7697 22.9685 57.7051 22.2446 57.6415 22.0941C57.4779 21.7066 57.1142 19.5115 57.0339 19.3194C56.9735 19.1742 57.011 19.3503 56.9443 19.0984C56.9172 18.9959 56.9099 18.9169 56.8776 18.7952L56.4347 16.5361C57.0704 16.1474 56.6254 16.6012 57.234 15.8677C57.3684 15.7044 57.4487 15.6382 57.5352 15.4449C57.6321 15.2293 57.6707 15.1727 57.7624 14.9314C58.2209 13.7261 58.0667 12.6894 58.0667 11.2791C58.0667 10.1186 58.1261 7.56267 57.9635 6.66907C57.7457 5.47547 57.3664 4.97795 56.4618 4.39823C56.2961 4.29254 56.021 4.16549 55.8084 4.1324C54.5151 3.92634 53.0123 4.02777 51.6628 4.02884H50.3132C49.8453 4.02884 49.5066 3.91887 49.468 4.38008L49.4545 8.25022ZM61.612 7.93207C61.611 10.015 61.5578 21.6372 61.6558 22.5543C61.7464 23.3945 62.0935 24.4258 62.8167 24.8721L63.4149 25.2169L64.4205 25.44C65.3324 25.4689 67.6501 25.4625 68.4265 25.3472C68.8611 25.2831 69.5009 24.9575 69.8084 24.6585C70.2836 24.1952 70.3315 24.0628 70.6035 23.4116C70.9214 22.6482 70.8046 19.4827 70.8046 18.3457L70.8005 7.55947C70.7932 6.21853 70.4159 4.96514 69.2071 4.41105C68.1535 3.92848 66.138 4.09503 64.8905 4.0961C63.6139 4.09823 63.1887 4.23809 62.3592 5.07404C62.1112 5.32386 62.0924 5.54059 61.9392 5.87369C61.7214 6.34772 61.613 7.28296 61.612 7.93207Z" fill="#0F1330"/>
<path fill-rule="evenodd" clip-rule="evenodd" d="M111.214 4.90286L111.193 13.036L111.19 13.9798C111.109 13.8848 108.446 5.01389 108.213 4.26122L105.588 4.17901L105.608 25.35L108.24 25.3447L108.252 11.6929C108.445 11.6801 108.42 11.7111 108.472 11.8413L110.573 18.9389L111.228 21.182L111.253 25.3714L113.714 25.3906C114.101 25.3564 113.983 24.9923 113.983 24.1372L113.98 4.53133C113.98 4.0146 114.097 4.09253 112.825 4.08719C112.426 4.08826 112.028 4.08933 111.629 4.08186C111.26 4.07438 111.204 4.07759 111.204 4.34663C111.204 4.4694 111.215 4.64663 111.214 4.90286ZM93.1197 5.1687C93.1197 7.64238 93.0197 24.9582 93.1603 25.3639C93.3521 25.4397 95.748 25.4728 95.8615 25.3489C95.9658 25.2347 95.9293 15.0357 95.9095 12.3922C95.9095 12.3421 95.9084 12.2257 95.9136 12.1798L95.9658 11.9716C96.0345 12.0335 96.2742 12.973 96.467 13.5869L98.6878 20.6332C98.9879 21.5834 98.8337 21.8663 98.841 24.1372L98.8441 25.2795L101.488 25.334L101.492 4.08933C101.039 4.08506 99.1672 4.01673 98.9223 4.13417C98.866 4.21211 98.891 4.14485 98.8608 4.26976L98.842 13.7407C98.841 13.92 98.7024 13.8389 98.5607 13.3574L96.1148 4.79503C95.8105 3.98043 96.2638 4.01673 94.6683 4.0146C92.8414 4.01246 93.1197 3.80748 93.1197 5.1687Z" fill="#4B8AB2"/>
<path fill-rule="evenodd" clip-rule="evenodd" d="M13.0141 16.252L26.0283 7.99815L13.0141 0.0625L0 7.89246L13.0141 16.252ZM13.0141 16.252L23.8054 9.40849L13.0141 2.82765L2.22287 9.31987L13.0141 16.252Z" fill="#4B8AB2"/>
<path fill-rule="evenodd" clip-rule="evenodd" d="M13.0141 11.9677L16.9168 9.49193L13.0141 7.11219L9.11128 9.4599L13.0141 11.9677ZM13.0141 14.4041L20.8353 9.44388L13.0141 4.6748L5.19287 9.38089L13.0141 14.4041Z" fill="#4B8AB2"/>
<path fill-rule="evenodd" clip-rule="evenodd" d="M13.0141 16.2521L0 7.89258V10.52L13.0141 18.8784L26.0283 10.6257V7.99827L13.0141 16.2521Z" fill="#0F1330"/>
<path fill-rule="evenodd" clip-rule="evenodd" d="M21.6691 17.6293L21.6566 15.146L13.0444 20.3186L4.34367 15.2474L4.30615 17.6677L13.0069 22.9311L21.6691 17.6293Z" fill="#0F1330"/>
<path fill-rule="evenodd" clip-rule="evenodd" d="M21.6691 22.0557L21.6566 19.5713L13.0444 24.745L4.34367 19.6738L4.30615 22.0941L13.0069 27.3575L21.6691 22.0557Z" fill="#0F1330"/>
<path fill-rule="evenodd" clip-rule="evenodd" d="M13.0141 29.4713L0 21.1118V23.7392L13.0141 32.0987L26.0283 23.8449V21.2175L13.0141 29.4713Z" fill="#0F1330"/>
<path fill-rule="evenodd" clip-rule="evenodd" d="M24.1768 22.3931L26.0286 21.2176L23.1846 19.4678L23.168 21.8005L24.1768 22.3931Z" fill="#4B8AB2"/>
<path fill-rule="evenodd" clip-rule="evenodd" d="M1.85187 22.286L0 21.1117L2.84398 19.3618L2.86065 21.6946L1.85187 22.286Z" fill="#4B8AB2"/>
</svg>
