<svg width="26" height="26" viewBox="0 0 26 26" fill="none" xmlns="http://www.w3.org/2000/svg">
<path fill-rule="evenodd" clip-rule="evenodd" d="M13 22.5673C18.2837 22.5673 22.5671 18.284 22.5671 13.0002C22.5671 7.71644 18.2837 3.43311 13 3.43311C7.7162 3.43311 3.43286 7.71644 3.43286 13.0002C3.43286 15.0403 4.0714 16.9312 5.15953 18.4841L4.3026 21.6976L7.57275 20.88C9.11483 21.9442 10.9846 22.5673 13 22.5673ZM9.21874 7.33161C9.59769 7.32832 9.96421 7.32515 10.2096 7.81798C10.4219 8.2444 10.683 8.9765 10.9911 9.85105L10.9951 9.86239C11.0671 10.0664 11.1794 10.3848 11.0318 10.5959C10.8813 10.811 10.5459 11.2437 10.303 11.524C10.2408 11.5958 10.1161 11.7601 10.286 12.0278C10.3283 12.0944 10.3647 12.1626 10.4049 12.2378C10.5667 12.5405 10.7888 12.9559 11.692 13.8315C12.6037 14.7152 13.7473 15.2239 14.1691 15.3932C14.2838 15.4582 14.5592 15.5452 14.744 15.3733C14.829 15.2942 14.989 15.0897 15.1636 14.8667C15.3685 14.6049 15.5935 14.3175 15.7406 14.1774C15.745 14.1734 15.7495 14.1692 15.7542 14.1649C15.8525 14.0747 16.0084 13.9319 16.2949 14.0466C16.5457 14.147 17.5083 14.6102 18.2353 14.9601C18.3783 15.0289 18.5121 15.0933 18.6296 15.1497C18.7452 15.1863 18.913 15.3212 18.913 15.5916C18.913 16.2016 18.4811 18.0079 16.3821 18.0453C14.2831 18.0826 11.7547 16.9849 9.8304 14.8627C7.83648 12.6638 7.24476 11.1939 7.24476 9.85104C7.24476 8.21254 8.39082 7.33214 9.12583 7.33214C9.15684 7.33214 9.18784 7.33187 9.21874 7.33161Z" fill="#60D669"/>
</svg>
